<?xml version="1.0" encoding="utf-8"?>
<!-- Generator: Adobe Illustrator 28.0.0, SVG Export Plug-In . SVG Version: 6.00 Build 0)  -->
<svg version="1.1" id="Layer_1" xmlns="http://www.w3.org/2000/svg" xmlns:xlink="http://www.w3.org/1999/xlink" x="0px" y="0px"
	 viewBox="0 0 121 71.7" style="enable-background:new 0 0 121 71.7;" xml:space="preserve">
<style type="text/css">
	.st0{display:none;}
	.st1{display:inline;}
	.st2{fill:#4D4D4D;}
	.st3{fill:url(#SVGID_1_);}
	.st4{fill:#FFFFFF;}
</style>
<g id="Background" class="st0">
	<g class="st1">
		<rect x="0.1" y="0.1" class="st2" width="121.1" height="71.5"/>
	</g>
</g>
<g id="Ebene_1">
	<g>
		<g>
			<g>
				
					<linearGradient id="SVGID_1_" gradientUnits="userSpaceOnUse" x1="60.2299" y1="50.3844" x2="60.2299" y2="74.121" gradientTransform="matrix(1 0 0 -1 0 74)">
					<stop  offset="0" style="stop-color:#FF00FF"/>
					<stop  offset="1" style="stop-color:#F7931E"/>
				</linearGradient>
				<path class="st3" d="M82.2,17v6.7L60.4,6.6L38.3,23.7v-6.3L60.6,0.1L82.2,17z"/>
			</g>
			<path class="st4" d="M23.9,31.1h4.7v18.4h-4.7v-2.2c-1.4,1.8-3.4,2.7-5.9,2.7c-2.5,0-4.5-0.9-6.3-2.9c-1.8-1.8-2.7-4.1-2.7-6.8
				c0-2.7,0.9-5,2.7-6.8c1.8-1.8,3.8-2.9,6.3-2.9s4.5,0.9,5.9,2.7V31.1z M15,44c0.9,0.9,2.2,1.4,3.6,1.4s2.7-0.5,3.6-1.4
				s1.4-2.2,1.4-3.8c0-1.4-0.5-2.7-1.4-3.8c-0.9-0.9-2.2-1.4-3.6-1.4s-2.7,0.5-3.6,1.4c-0.9,0.9-1.4,2.2-1.4,3.8
				C13.6,41.7,14.1,43,15,44z"/>
			<path class="st4" d="M37.7,34.1c0.4-1.3,1.3-2,2.2-2.7c1.1-0.5,2.2-0.9,3.4-0.9v5.2c-1.4-0.2-2.7,0.2-4,0.9
				c-1.1,0.7-1.8,2-1.8,3.8v8.8h-4.7V31.1h4.7v3.1H37.7z"/>
			<path class="st4" d="M59.3,31.1H64v18.4h-4.7v-2.2c-1.4,1.8-3.4,2.7-5.9,2.7c-2.5,0-4.5-0.9-6.3-2.9c-1.8-1.8-2.7-4.1-2.7-6.8
				c0-2.7,0.9-5,2.7-6.8c1.8-1.8,3.8-2.9,6.3-2.9s4.5,0.9,5.9,2.7V31.1z M50.5,44c0.9,0.9,2.2,1.4,3.6,1.4s2.7-0.5,3.6-1.4
				s1.4-2.2,1.4-3.8c0-1.4-0.5-2.7-1.4-3.8c-0.9-0.9-2.2-1.4-3.6-1.4s-2.7,0.5-3.6,1.4c-0.9,0.9-1.4,2.2-1.4,3.8
				C49.1,41.7,49.6,43,50.5,44z"/>
			<polygon class="st4" points="73.2,31.1 68.5,31.1 68.5,49.4 73.2,45.7 			"/>
			<path class="st4" d="M85.4,42.8c0.7,0.4,0.9,0.7,0.9,1.3c0,1.1-0.9,1.6-2.5,1.6c-0.7,0-1.3-0.2-1.8-0.4l-3.8,2.9
				c1.4,1.1,3.2,1.8,5.6,1.8c2.2,0,4-0.5,5.2-1.4c1.4-1.1,2.2-2.5,2.2-4.3c0-1.3-0.4-2.3-0.9-3.1c-0.4-0.4-0.7-0.7-1.1-1.1
				L85.4,42.8C85.3,42.8,85.4,42.8,85.4,42.8z"/>
			<path class="st4" d="M82.7,37.4c-0.7-0.4-0.9-0.7-0.9-1.3s0.2-0.9,0.5-1.1c0.4-0.4,0.9-0.4,1.4-0.4c0.9,0,1.6,0.4,2.2,0.9
				l3.6-2.7c-0.5-0.5-1.1-0.9-1.8-1.3c-1.3-0.7-2.5-1.1-4.1-1.1c-2,0-3.6,0.5-5,1.6c-1.3,1.1-2,2.5-2,4.3c0,1.3,0.4,2.2,0.9,3.1
				c0.5,0.5,1.1,1.1,1.6,1.4l3.8-3.1C83.3,37.6,82.9,37.6,82.7,37.4z"/>
			<path class="st4" d="M98,38.5h9.4c-0.2-1.3-0.9-2.2-1.6-2.9c-0.9-0.5-1.8-0.9-2.9-0.9c-1.3,0-2.3,0.4-3.2,0.9
				C98.8,36.5,98.2,37.4,98,38.5z M98,42.2c0.7,2.3,2.3,3.4,5.2,3.4c1.8,0,3.2-0.5,4.1-1.8l3.8,2.2c-1.8,2.7-4.5,4-8.1,4
				c-3.1,0-5.4-0.9-7.4-2.7c-1.8-1.8-2.7-4.1-2.7-7c0-2.7,0.9-5,2.7-7c1.8-1.8,4.1-2.7,7-2.7c2.7,0,4.9,0.9,6.7,2.9
				c1.8,1.8,2.7,4.1,2.7,6.8c0,0.5,0,1.3-0.2,2C111.9,42.2,98,42.2,98,42.2z"/>
		</g>
		<g>
			<path class="st4" d="M30.2,63.5c0,0.4,0.2,0.5,0.5,0.7c0.4,0.2,0.9,0.4,1.4,0.5c0.5,0.2,1.1,0.4,1.6,0.5c0.5,0.2,1.1,0.5,1.4,1.1
				c0.4,0.5,0.5,1.1,0.5,1.8c0,1.1-0.4,2-1.3,2.5s-1.8,0.9-3.1,0.9c-2.2,0-3.8-0.9-4.5-2.5l2.3-1.4c0.4,0.9,1.1,1.4,2.2,1.4
				c1.1,0,1.4-0.4,1.4-0.9c0-0.4-0.2-0.5-0.5-0.7c-0.4-0.2-0.9-0.4-1.4-0.5c-0.5-0.2-1.1-0.4-1.6-0.5c-0.5-0.2-1.1-0.5-1.4-1.1
				s-0.5-1.1-0.5-1.8c0-1.1,0.4-2,1.3-2.5c0.7-0.5,1.8-0.9,2.9-0.9c0.9,0,1.6,0.2,2.3,0.5c0.7,0.4,1.3,0.9,1.6,1.6L33,63.5
				c-0.4-0.7-0.9-1.1-1.8-1.1c-0.4,0-0.7,0-0.9,0.2C30.2,62.8,30.2,63.1,30.2,63.5z"/>
			<path class="st4" d="M39.7,66.9c0.4,1.4,1.4,2,3.1,2c1.1,0,1.8-0.4,2.3-1.1l2.2,1.3c-1.1,1.6-2.7,2.3-4.7,2.3
				c-1.8,0-3.2-0.5-4.3-1.6c-1.1-1.1-1.6-2.5-1.6-4.1c0-1.6,0.5-3.1,1.6-4.1c1.1-1.1,2.5-1.6,4.1-1.6c1.6,0,2.9,0.5,4,1.6
				c1.1,1.1,1.6,2.5,1.6,4.1c0,0.4,0,0.7-0.2,1.1h-8.1V66.9z M39.5,64.8h5.6c-0.2-0.7-0.5-1.3-0.9-1.6c-0.5-0.4-1.1-0.5-1.6-0.5
				c-0.7,0-1.4,0.2-1.8,0.5C40.1,63.5,39.7,64,39.5,64.8z"/>
			<path class="st4" d="M57.9,60.4h2.7v10.8h-2.7V70c-0.9,1.1-2,1.6-3.6,1.6c-1.4,0-2.7-0.5-3.8-1.6c-1.1-1.1-1.6-2.5-1.6-4
				s0.5-2.9,1.6-4c1.1-1.1,2.3-1.6,3.8-1.6c1.4,0,2.7,0.5,3.6,1.6V60.4z M52.8,68c0.5,0.5,1.3,0.9,2.2,0.9c0.9,0,1.6-0.4,2.2-0.9
				c0.5-0.5,0.9-1.3,0.9-2.2s-0.4-1.6-0.9-2.2c-0.5-0.5-1.3-0.9-2.2-0.9c-0.9,0-1.6,0.4-2.2,0.9c-0.5,0.5-0.9,1.3-0.9,2.2
				S52.3,67.5,52.8,68z"/>
			<path class="st4" d="M66,62.2c0.2-0.7,0.7-1.3,1.3-1.6c0.5-0.4,1.3-0.5,2-0.5v3.1c-0.9-0.2-1.6,0-2.3,0.5
				c-0.7,0.4-1.1,1.3-1.1,2.2v5.2h-2.7V60.3h2.7v2H66z"/>
			<path class="st4" d="M75.7,71.4c-1.6,0-3.1-0.5-4.1-1.6c-1.1-1.1-1.6-2.5-1.6-4.1c0-1.6,0.5-2.9,1.6-4.1c1.1-1.1,2.5-1.6,4.1-1.6
				c1.1,0,2,0.2,2.9,0.7c0.9,0.5,1.4,1.3,2,2L78.2,64c-0.2-0.4-0.5-0.7-0.9-1.1c-0.4-0.2-0.9-0.4-1.4-0.4c-0.9,0-1.4,0.4-2.2,0.9
				c-0.5,0.5-0.9,1.3-0.9,2.2c0,0.9,0.4,1.6,0.9,2.2s1.3,0.9,2.2,0.9c0.5,0,1.1-0.2,1.4-0.4c0.4-0.2,0.7-0.5,0.9-1.1l2.3,1.4
				c-0.5,0.9-1.1,1.4-2,2C77.7,71.2,76.8,71.4,75.7,71.4z"/>
			<path class="st4" d="M88.1,60.1c1.3,0,2.2,0.4,2.9,1.3c0.7,0.7,1.1,1.8,1.1,3.2v6.7h-2.7v-6.3c0-0.7-0.2-1.3-0.5-1.6
				c-0.4-0.4-0.9-0.5-1.6-0.5c-0.7,0-1.3,0.2-1.8,0.7c-0.4,0.4-0.7,1.1-0.7,2v5.8H82V56.1h2.7v5.6C85.4,60.6,86.5,60.1,88.1,60.1z"
				/>
		</g>
	</g>
</g>
</svg>
